<svg width="33" height="33" style="background-color: transparent;" viewBox="0 0 33 33" fill="none" xmlns="http://www.w3.org/2000/svg">
<rect x="0.5" y="0.5" width="32" height="32" rx="10" fill="tranparent"/>
<g clip-path="url(#clip0_34478_3421)">
<path d="M16.4997 17.7452C16.3003 17.7456 16.106 17.6837 15.9455 17.5686L8.377 12.1347C8.27852 12.0639 8.19535 11.975 8.13223 11.873C8.0691 11.7709 8.02726 11.6578 8.0091 11.5401C7.97241 11.3023 8.03439 11.0601 8.18138 10.8667C8.32838 10.6734 8.54835 10.5447 8.79292 10.5091C9.03749 10.4734 9.28661 10.5336 9.48549 10.6766L16.4997 15.7075L23.514 10.6766C23.6125 10.6058 23.7243 10.5546 23.8431 10.5258C23.962 10.4971 24.0855 10.4914 24.2066 10.5091C24.3277 10.5267 24.444 10.5674 24.5489 10.6288C24.6538 10.6901 24.7453 10.771 24.8181 10.8667C24.8909 10.9625 24.9436 11.0712 24.9731 11.1868C25.0027 11.3023 25.0085 11.4224 24.9904 11.5401C24.9722 11.6578 24.9304 11.7709 24.8672 11.873C24.8041 11.975 24.721 12.0639 24.6225 12.1347L17.054 17.5686C16.8934 17.6837 16.6992 17.7456 16.4997 17.7452Z" fill="#7AE229"/>
<path d="M16.5 22.5001C16.3006 22.5005 16.1063 22.4386 15.9457 22.3235L8.37724 16.8896C8.17837 16.7466 8.04603 16.5328 8.00934 16.295C7.97266 16.0572 8.03463 15.815 8.18163 15.6216C8.32862 15.4283 8.5486 15.2996 8.79317 15.2639C9.03773 15.2283 9.28686 15.2885 9.48574 15.4314L16.5 20.4624L23.5142 15.4314C23.7131 15.2885 23.9622 15.2283 24.2068 15.2639C24.4514 15.2996 24.6713 15.4283 24.8183 15.6216C24.9653 15.815 25.0273 16.0572 24.9906 16.295C24.9539 16.5328 24.8216 16.7466 24.6227 16.8896L17.0542 22.3235C16.8937 22.4386 16.6994 22.5005 16.5 22.5001Z" fill="#7AE229"/>
</g>
<defs>
<clipPath id="clip0_34478_3421">
<rect width="17" height="12" fill="white" transform="translate(8 10.5)"/>
</clipPath>
</defs>
</svg>
